<?xml version="1.0" encoding="UTF-8" standalone="no"?>
<!-- Created with Inkscape (http://www.inkscape.org/) -->

<svg
   version="1.1"
   id="svg1450"
   xml:space="preserve"
   width="104.13333"
   height="106.38668"
   viewBox="0 0 104.13333 106.38668"
   sodipodi:docname="logo.svg"
   inkscape:version="1.1 (c68e22c387, 2021-05-23)"
   xmlns:inkscape="http://www.inkscape.org/namespaces/inkscape"
   xmlns:sodipodi="http://sodipodi.sourceforge.net/DTD/sodipodi-0.dtd"
   xmlns="http://www.w3.org/2000/svg"
   xmlns:svg="http://www.w3.org/2000/svg"><defs
     id="defs1454" /><sodipodi:namedview
     id="namedview1452"
     pagecolor="#ffffff"
     bordercolor="#666666"
     borderopacity="1.0"
     inkscape:pageshadow="2"
     inkscape:pageopacity="0.0"
     inkscape:pagecheckerboard="0"
     showgrid="false"
     inkscape:zoom="7.0591544"
     inkscape:cx="52.13089"
     inkscape:cy="53.19334"
     inkscape:window-width="1266"
     inkscape:window-height="1400"
     inkscape:window-x="5"
     inkscape:window-y="31"
     inkscape:window-maximized="1"
     inkscape:current-layer="g1456" /><g
     id="g1456"
     inkscape:groupmode="layer"
     inkscape:label="logo"
     transform="matrix(1.3333333,0,0,1.3333333,0,3.9930003e-6)"><g
       id="g1458"><path
         d="M 4.09,52.52 5.238,51.652 5.23,51.629 3.781,51.621 Z m 2.133,-1.926 c 0.043,0 0.078,0.023 0.093,0.066 l 0.379,1.113 c 0.016,0.047 0,0.082 -0.031,0.11 L 3.16,54.82 C 3.129,54.844 3.098,54.832 3.082,54.793 L 2.699,53.672 c -0.015,-0.051 0,-0.086 0.031,-0.113 L 3.297,53.125 2.785,51.617 H 2.07 c -0.043,0 -0.078,-0.019 -0.093,-0.062 L 1.598,50.434 C 1.582,50.395 1.602,50.367 1.641,50.367 l 4.582,0.227"
         style="fill:#ffffff;fill-opacity:1;fill-rule:nonzero;stroke:none"
         id="path1460" /><path
         d="m 6.723,58.355 0.988,-1.05 -0.008,-0.02 -1.43,0.235 z m 1.785,-2.261 c 0.039,-0.004 0.078,0.008 0.101,0.051 l 0.555,1.035 c 0.024,0.043 0.016,0.078 -0.012,0.113 L 6.191,60.781 C 6.164,60.812 6.129,60.805 6.109,60.766 L 5.547,59.723 C 5.523,59.68 5.531,59.641 5.559,59.613 L 6.047,59.086 5.289,57.688 4.586,57.809 C 4.543,57.816 4.508,57.805 4.484,57.758 L 3.922,56.719 C 3.902,56.684 3.914,56.652 3.957,56.645 l 4.551,-0.551"
         style="fill:#ffffff;fill-opacity:1;fill-rule:nonzero;stroke:none"
         id="path1462" /><path
         d="m 10.875,60.074 c 0.031,-0.023 0.066,-0.015 0.094,0.02 l 0.679,0.89 c 0.024,0.036 0.024,0.075 -0.007,0.098 L 9.027,63.07 c -0.019,0.016 -0.019,0.039 -0.004,0.059 l 1.254,1.648 c 0.028,0.035 0.024,0.071 -0.007,0.094 l -0.7,0.535 C 9.539,65.43 9.5,65.422 9.477,65.387 L 7.473,62.758 C 7.445,62.723 7.449,62.684 7.48,62.66 l 3.395,-2.586"
         style="fill:#ffffff;fill-opacity:1;fill-rule:nonzero;stroke:none"
         id="path1464" /><path
         d="m 14.23,66.574 c 0.274,0.266 0.52,0.301 0.731,0.082 0.219,-0.222 0.176,-0.461 -0.102,-0.726 l -0.367,-0.36 c -0.019,-0.019 -0.039,-0.019 -0.058,0 l -0.575,0.594 c -0.019,0.016 -0.019,0.035 0.004,0.059 z m -1.601,0.918 0.414,0.399 c 0.281,0.277 0.551,0.293 0.773,0.058 0.211,-0.215 0.2,-0.492 -0.086,-0.765 l -0.414,-0.403 c -0.019,-0.019 -0.039,-0.019 -0.058,0 l -0.633,0.653 c -0.02,0.019 -0.016,0.039 0.004,0.058 z m 1.476,-3.402 c 0.028,-0.028 0.067,-0.028 0.098,0.004 l 1.43,1.386 c 0.785,0.758 0.82,1.45 0.332,1.95 -0.317,0.324 -0.699,0.39 -1.086,0.261 l -0.008,0.008 c 0.172,0.34 0.149,0.828 -0.207,1.196 -0.602,0.617 -1.367,0.441 -2.109,-0.274 L 11.141,67.25 c -0.032,-0.031 -0.032,-0.066 -0.004,-0.098 l 2.968,-3.062"
         style="fill:#ffffff;fill-opacity:1;fill-rule:nonzero;stroke:none"
         id="path1466" /><path
         d="m 18.523,71.758 c 0.133,-0.09 0.262,-0.246 0.563,-0.672 0.301,-0.43 0.406,-0.602 0.445,-0.758 0.071,-0.246 -0.031,-0.492 -0.289,-0.676 -0.258,-0.179 -0.523,-0.191 -0.734,-0.039 -0.133,0.086 -0.262,0.242 -0.563,0.668 -0.3,0.43 -0.406,0.602 -0.445,0.758 -0.07,0.25 0.031,0.492 0.289,0.676 0.258,0.18 0.523,0.191 0.734,0.043 z m -2.195,-1.149 c 0.098,-0.339 0.227,-0.57 0.57,-1.058 0.348,-0.492 0.52,-0.688 0.809,-0.899 0.625,-0.437 1.414,-0.324 2.121,0.172 0.707,0.496 1.078,1.203 0.875,1.938 -0.094,0.343 -0.223,0.566 -0.57,1.058 -0.348,0.492 -0.512,0.692 -0.809,0.895 -0.625,0.437 -1.414,0.324 -2.121,-0.172 -0.703,-0.492 -1.078,-1.199 -0.875,-1.934"
         style="fill:#ffffff;fill-opacity:1;fill-rule:nonzero;stroke:none"
         id="path1468" /><path
         d="m 24.621,73.344 c 0.125,-0.258 0.012,-0.516 -0.312,-0.672 l -0.606,-0.297 c -0.027,-0.012 -0.047,-0.008 -0.055,0.016 l -0.375,0.765 c -0.011,0.024 -0.003,0.043 0.02,0.055 l 0.609,0.297 c 0.321,0.16 0.594,0.09 0.719,-0.164 z m -1.242,2.695 c -0.059,-0.031 -0.07,-0.055 -0.07,-0.105 L 23.301,74.258 22.883,74.055 C 22.859,74.043 22.84,74.047 22.828,74.07 l -0.64,1.313 c -0.016,0.035 -0.055,0.047 -0.094,0.027 L 21.09,74.918 c -0.039,-0.02 -0.055,-0.055 -0.039,-0.09 l 1.871,-3.836 c 0.019,-0.035 0.055,-0.047 0.094,-0.027 l 1.785,0.875 c 1.008,0.492 1.324,1.305 0.961,2.047 -0.242,0.492 -0.696,0.769 -1.262,0.75 l 0.074,1.902 c 0,0.043 -0.035,0.07 -0.082,0.047 l -1.113,-0.547"
         style="fill:#ffffff;fill-opacity:1;fill-rule:nonzero;stroke:none"
         id="path1470" /><path
         d="m 27.34,75.348 c 0.176,-0.578 0.277,-0.817 0.488,-1.106 0.457,-0.609 1.242,-0.75 2.07,-0.496 0.86,0.262 1.329,0.797 1.422,1.414 0.008,0.047 -0.015,0.082 -0.062,0.086 l -0.996,0.07 c -0.047,0.004 -0.086,-0.015 -0.098,-0.054 -0.086,-0.278 -0.238,-0.446 -0.562,-0.543 -0.313,-0.098 -0.563,-0.024 -0.715,0.187 -0.102,0.129 -0.172,0.313 -0.325,0.813 -0.152,0.5 -0.191,0.699 -0.187,0.855 0.02,0.262 0.191,0.465 0.527,0.567 0.301,0.093 0.578,0.047 0.719,-0.149 0.051,-0.062 0.09,-0.144 0.125,-0.258 0.008,-0.023 -0.004,-0.043 -0.031,-0.05 l -0.508,-0.153 c -0.043,-0.015 -0.062,-0.047 -0.051,-0.082 l 0.215,-0.699 c 0.012,-0.039 0.047,-0.055 0.086,-0.043 l 1.668,0.508 c 0.043,0.015 0.063,0.047 0.051,0.086 l -0.098,0.32 c -0.121,0.399 -0.246,0.707 -0.422,0.938 -0.461,0.625 -1.234,0.8 -2.086,0.543 -0.832,-0.254 -1.402,-0.805 -1.441,-1.571 -0.012,-0.351 0.035,-0.609 0.211,-1.183"
         style="fill:#ffffff;fill-opacity:1;fill-rule:nonzero;stroke:none"
         id="path1472" /><path
         d="m 36.352,77.91 0.128,-2.629 c 0.004,-0.039 0.032,-0.062 0.079,-0.058 l 1.117,0.054 c 0.043,0.004 0.07,0.032 0.07,0.071 l -0.133,2.699 c -0.023,0.437 0.239,0.703 0.645,0.723 0.426,0.023 0.687,-0.215 0.711,-0.653 l 0.133,-2.699 c 0,-0.039 0.031,-0.063 0.074,-0.063 l 1.121,0.055 c 0.043,0.004 0.07,0.031 0.066,0.07 l -0.129,2.629 c -0.058,1.168 -0.863,1.735 -2.027,1.676 -1.184,-0.058 -1.914,-0.707 -1.855,-1.875"
         style="fill:#ffffff;fill-opacity:1;fill-rule:nonzero;stroke:none"
         id="path1474" /><path
         d="m 42.281,75.422 c -0.008,-0.039 0.02,-0.067 0.063,-0.074 l 1.051,-0.114 c 0.05,-0.004 0.101,0.008 0.128,0.051 l 1.735,2.317 0.027,-0.004 -0.269,-2.477 c -0.004,-0.035 0.023,-0.066 0.066,-0.07 l 1,-0.11 c 0.043,-0.003 0.074,0.02 0.078,0.059 l 0.465,4.242 c 0.004,0.039 -0.023,0.07 -0.066,0.074 l -1.051,0.114 c -0.051,0.004 -0.102,-0.008 -0.129,-0.051 l -1.719,-2.313 -0.043,0.004 0.27,2.473 c 0.004,0.035 -0.024,0.066 -0.067,0.07 l -1,0.11 c -0.043,0.004 -0.074,-0.02 -0.078,-0.055 l -0.461,-4.246"
         style="fill:#ffffff;fill-opacity:1;fill-rule:nonzero;stroke:none"
         id="path1476" /><path
         d="m 48.121,74.562 c -0.012,-0.035 0.012,-0.07 0.055,-0.078 l 1.09,-0.261 c 0.039,-0.012 0.074,0.007 0.082,0.043 l 1.004,4.156 c 0.011,0.035 -0.012,0.07 -0.051,0.078 l -1.094,0.262 c -0.039,0.011 -0.074,-0.008 -0.082,-0.047 l -1.004,-4.153"
         style="fill:#ffffff;fill-opacity:1;fill-rule:nonzero;stroke:none"
         id="path1478" /><path
         d="m 54.062,77.328 c -0.046,0.016 -0.082,0.012 -0.109,-0.027 l -2.976,-3.43 c -0.028,-0.031 -0.012,-0.07 0.035,-0.09 l 1.101,-0.418 c 0.047,-0.019 0.078,-0.008 0.11,0.028 L 53.98,75.559 54,75.551 53.84,72.773 c -0.004,-0.046 0.015,-0.078 0.062,-0.093 l 1.094,-0.418 c 0.047,-0.02 0.078,0.004 0.078,0.047 l 0.063,4.539 c 0.004,0.047 -0.016,0.078 -0.063,0.093 l -1.012,0.387"
         style="fill:#ffffff;fill-opacity:1;fill-rule:nonzero;stroke:none"
         id="path1480" /><path
         d="m 56.539,71.566 c -0.019,-0.031 -0.008,-0.07 0.031,-0.089 l 2.774,-1.582 c 0.039,-0.02 0.078,-0.012 0.097,0.023 l 0.414,0.723 c 0.016,0.035 0.004,0.07 -0.031,0.093 l -1.703,0.965 c -0.027,0.016 -0.031,0.035 -0.019,0.059 l 0.328,0.574 c 0.015,0.027 0.035,0.031 0.058,0.016 l 1.399,-0.797 c 0.039,-0.02 0.074,-0.012 0.093,0.019 l 0.403,0.707 c 0.019,0.035 0.008,0.071 -0.028,0.094 l -1.398,0.797 c -0.027,0.012 -0.031,0.031 -0.019,0.055 l 0.351,0.609 c 0.012,0.023 0.031,0.027 0.055,0.012 l 1.703,-0.969 c 0.039,-0.02 0.074,-0.012 0.094,0.02 l 0.414,0.726 c 0.019,0.031 0.007,0.07 -0.028,0.09 l -2.777,1.582 c -0.039,0.019 -0.078,0.012 -0.098,-0.023 l -2.113,-3.704"
         style="fill:#ffffff;fill-opacity:1;fill-rule:nonzero;stroke:none"
         id="path1482" /><path
         d="m 63.816,68.379 c -0.175,-0.223 -0.457,-0.231 -0.738,-0.008 l -0.531,0.422 c -0.02,0.016 -0.024,0.035 -0.008,0.055 l 0.527,0.668 c 0.016,0.023 0.036,0.023 0.059,0.004 l 0.531,-0.418 c 0.282,-0.223 0.34,-0.497 0.16,-0.723 z m 1.891,2.293 c -0.051,0.039 -0.078,0.035 -0.125,0.012 l -1.508,-0.715 -0.367,0.289 c -0.023,0.015 -0.027,0.035 -0.012,0.054 l 0.907,1.149 c 0.023,0.031 0.019,0.07 -0.016,0.094 l -0.879,0.695 c -0.035,0.027 -0.074,0.027 -0.098,-0.004 l -2.644,-3.351 c -0.024,-0.028 -0.016,-0.067 0.015,-0.094 l 1.563,-1.235 c 0.879,-0.695 1.746,-0.632 2.258,0.02 0.344,0.43 0.394,0.961 0.133,1.465 l 1.742,0.754 c 0.039,0.019 0.047,0.062 0.008,0.093 l -0.977,0.774"
         style="fill:#ffffff;fill-opacity:1;fill-rule:nonzero;stroke:none"
         id="path1484" /><path
         d="m 67.945,67.984 c -0.043,0.008 -0.082,-0.019 -0.082,-0.066 L 67.801,66.98 c -0.004,-0.046 0.023,-0.078 0.062,-0.082 0.371,-0.058 0.836,-0.253 1.164,-0.613 0.309,-0.332 0.344,-0.617 0.164,-0.785 -0.136,-0.129 -0.32,-0.109 -0.687,0.203 l -0.199,0.168 c -0.817,0.684 -1.52,0.813 -2.121,0.254 -0.602,-0.555 -0.524,-1.449 0.226,-2.262 0.457,-0.496 1.024,-0.832 1.539,-0.949 0.043,-0.012 0.074,0.008 0.082,0.055 l 0.153,0.875 c 0.004,0.039 -0.016,0.074 -0.055,0.086 -0.387,0.113 -0.727,0.297 -0.988,0.582 -0.243,0.261 -0.25,0.5 -0.094,0.644 0.141,0.129 0.34,0.098 0.695,-0.207 l 0.196,-0.168 c 0.828,-0.695 1.511,-0.801 2.121,-0.238 0.601,0.555 0.566,1.465 -0.321,2.422 -0.539,0.586 -1.308,0.969 -1.793,1.019"
         style="fill:#ffffff;fill-opacity:1;fill-rule:nonzero;stroke:none"
         id="path1486" /><path
         d="M 68.945,61.043 C 68.914,61.02 68.91,60.984 68.934,60.945 l 0.656,-0.91 C 69.613,60 69.652,59.992 69.684,60.016 l 3.464,2.492 c 0.032,0.019 0.04,0.058 0.012,0.094 l -0.652,0.91 c -0.028,0.039 -0.067,0.043 -0.098,0.019 l -3.465,-2.488"
         style="fill:#ffffff;fill-opacity:1;fill-rule:nonzero;stroke:none"
         id="path1488" /><path
         d="m 75.125,59.5 -0.012,0.02 c -0.008,0.011 -0.015,0.015 -0.035,0.023 -0.008,0 -0.019,0.004 -0.027,0 l -0.02,-0.012 -2.871,-1.59 c -0.019,-0.011 -0.035,-0.003 -0.051,0.012 l -0.004,0.004 -0.582,1.055 -0.007,0.015 c -0.008,0.016 -0.02,0.02 -0.028,0.024 H 71.48 c 0,0 -0.007,0 -0.007,0.004 -0.016,0 -0.028,-0.004 -0.039,-0.012 l -0.77,-0.426 C 70.637,58.602 70.625,58.57 70.633,58.543 l 0.012,-0.02 1.812,-3.285 c 0.008,-0.019 0.02,-0.031 0.039,-0.039 0,0 0.008,0 0.016,0.004 0.008,-0.004 0.023,-0.004 0.035,0 l 0.769,0.426 c 0.016,0.012 0.028,0.027 0.032,0.047 0.004,0.008 0.004,0.023 -0.004,0.035 l -0.008,0.016 -0.578,1.05 c -0.008,0.012 -0.012,0.02 -0.008,0.028 -0.004,0.004 0,0.007 0.004,0.019 l 0.016,0.008 2.875,1.594 0.015,0.008 c 0.016,0.015 0.016,0.023 0.016,0.05 0.004,0.008 -0.004,0.02 -0.012,0.032 L 75.125,59.5"
         style="fill:#ffffff;fill-opacity:1;fill-rule:nonzero;stroke:none"
         id="path1490" /><path
         d="m 77.707,54.047 c -0.016,0.039 -0.047,0.058 -0.086,0.043 l -1.535,-0.563 -2.969,0.485 c -0.043,0 -0.062,-0.032 -0.047,-0.078 l 0.387,-1.059 c 0.02,-0.047 0.051,-0.074 0.102,-0.082 l 1.687,-0.254 0.008,-0.019 -1.125,-1.274 C 74.09,51.207 74.09,51.16 74.105,51.117 l 0.383,-1.039 c 0.02,-0.055 0.055,-0.058 0.086,-0.031 l 1.949,2.293 1.536,0.566 c 0.035,0.012 0.05,0.047 0.035,0.09 l -0.387,1.051"
         style="fill:#ffffff;fill-opacity:1;fill-rule:nonzero;stroke:none"
         id="path1492" /><path
         d="M 4.051,41.473 4.043,40.188 C 4.039,39.492 3.703,39.129 3.188,39.129 2.668,39.133 2.328,39.5 2.332,40.195 l 0.004,1.285 c 0,0.028 0.016,0.043 0.039,0.043 l 1.637,-0.007 c 0.023,0 0.039,-0.016 0.039,-0.043 z M 1.984,40.234 C 1.98,39.574 1.645,39.215 1.164,39.219 0.66,39.223 0.348,39.582 0.348,40.242 l 0.007,1.25 c 0,0.028 0.012,0.043 0.04,0.043 L 1.949,41.527 C 1.977,41.523 1.988,41.512 1.988,41.484 Z M 0.07,41.945 c -0.039,0 -0.062,-0.027 -0.062,-0.074 L 0,40.238 c -0.004,-0.926 0.438,-1.426 1.133,-1.429 0.535,0 0.867,0.3 0.988,0.75 h 0.016 c 0.062,-0.36 0.402,-0.836 1.039,-0.836 0.758,-0.004 1.211,0.531 1.215,1.492 l 0.007,1.637 c 0,0.043 -0.023,0.07 -0.062,0.07 L 0.07,41.945"
         style="fill:#ffffff;fill-opacity:1;fill-rule:nonzero;stroke:none"
         id="path1494" /><path
         d="M 1.762,33.633 C 1.219,33.559 0.852,33.898 0.754,34.59 l -0.172,1.238 c -0.004,0.027 0.008,0.043 0.031,0.047 l 1.641,0.227 c 0.023,0.003 0.039,-0.008 0.043,-0.04 L 2.469,34.828 C 2.566,34.137 2.312,33.711 1.762,33.633 Z m 3.168,0.332 c -0.008,0.043 -0.024,0.062 -0.071,0.078 l -2.031,0.754 -0.012,0.07 -0.171,1.246 c -0.008,0.028 0.003,0.043 0.031,0.047 l 1.844,0.258 c 0.039,0.004 0.062,0.035 0.054,0.078 L 4.539,36.758 C 4.531,36.801 4.5,36.828 4.461,36.82 L 0.234,36.238 C 0.199,36.23 0.176,36.199 0.184,36.156 L 0.41,34.535 c 0.125,-0.91 0.668,-1.41 1.41,-1.305 0.602,0.082 0.965,0.512 1.012,1.149 L 4.91,33.59 c 0.039,-0.02 0.07,0.004 0.063,0.047 L 4.93,33.965"
         style="fill:#ffffff;fill-opacity:1;fill-rule:nonzero;stroke:none"
         id="path1496" /><path
         d="M 1.25,30.5 C 1.211,30.488 1.195,30.453 1.207,30.414 l 0.77,-2.687 c 0.011,-0.043 0.046,-0.063 0.085,-0.051 l 0.208,0.058 c 0.039,0.012 0.054,0.047 0.042,0.09 l -0.664,2.321 c -0.007,0.027 0,0.043 0.024,0.05 l 1.504,0.43 c 0.023,0.008 0.043,-0.004 0.051,-0.031 l 0.57,-1.996 c 0.012,-0.039 0.047,-0.059 0.082,-0.051 l 0.211,0.062 c 0.039,0.012 0.055,0.043 0.043,0.086 l -0.571,1.996 c -0.011,0.028 0,0.047 0.024,0.051 l 1.566,0.449 C 5.176,31.199 5.191,31.188 5.199,31.16 L 5.867,28.84 C 5.879,28.801 5.91,28.777 5.949,28.789 l 0.211,0.063 c 0.035,0.007 0.051,0.043 0.039,0.086 L 5.43,31.621 C 5.418,31.664 5.387,31.684 5.348,31.676 L 1.25,30.5"
         style="fill:#ffffff;fill-opacity:1;fill-rule:nonzero;stroke:none"
         id="path1498" /><path
         d="M 6.441,24.367 3.973,24.27 3.961,24.289 5.695,26.062 Z M 3.398,24.258 C 3.367,24.23 3.355,24.195 3.375,24.152 L 3.477,23.918 C 3.496,23.871 3.531,23.863 3.57,23.867 l 4.586,0.176 c 0.039,0.004 0.055,0.035 0.039,0.074 L 8.082,24.371 C 8.059,24.418 8.035,24.438 7.984,24.43 l -1.16,-0.043 -0.859,1.941 0.812,0.832 c 0.039,0.043 0.039,0.074 0.024,0.113 l -0.113,0.254 c -0.02,0.039 -0.051,0.051 -0.083,0.02 L 3.398,24.258"
         style="fill:#ffffff;fill-opacity:1;fill-rule:nonzero;stroke:none"
         id="path1500" /><path
         d="M 5.363,20.305 C 5.328,20.281 5.324,20.246 5.344,20.207 l 0.14,-0.223 c 0.024,-0.039 0.063,-0.05 0.094,-0.027 L 7.727,21.293 6.805,17.977 C 6.793,17.922 6.793,17.887 6.82,17.844 L 7,17.559 C 7.02,17.52 7.066,17.523 7.074,17.57 l 0.594,2.188 3.078,-0.047 c 0.047,-0.004 0.063,0.031 0.043,0.07 l -0.172,0.274 c -0.027,0.043 -0.058,0.058 -0.105,0.062 l -2.739,0.028 0.383,1.414 1.043,0.648 c 0.031,0.023 0.039,0.059 0.016,0.098 L 9.074,22.527 C 9.051,22.566 9.012,22.578 8.98,22.555 l -3.617,-2.25"
         style="fill:#ffffff;fill-opacity:1;fill-rule:nonzero;stroke:none"
         id="path1502" /><path
         d="M 8.469,15.703 C 8.438,15.68 8.438,15.641 8.461,15.605 l 0.164,-0.207 c 0.027,-0.035 0.066,-0.043 0.098,-0.019 l 3.363,2.629 c 0.027,0.023 0.031,0.058 0.004,0.094 l -0.164,0.21 c -0.024,0.036 -0.063,0.04 -0.094,0.016 L 8.469,15.703"
         style="fill:#ffffff;fill-opacity:1;fill-rule:nonzero;stroke:none"
         id="path1504" /><path
         d="m 10.414,13.332 c -0.027,-0.027 -0.023,-0.066 0.004,-0.098 l 0.187,-0.187 c 0.036,-0.035 0.075,-0.059 0.133,-0.043 l 4.282,0.789 0.015,-0.016 -2.574,-2.523 c -0.031,-0.027 -0.027,-0.066 0.004,-0.098 l 0.183,-0.187 c 0.032,-0.031 0.071,-0.035 0.098,-0.008 l 3.043,2.98 c 0.027,0.028 0.027,0.067 -0.004,0.098 l -0.195,0.199 c -0.031,0.032 -0.07,0.055 -0.133,0.043 l -4.273,-0.808 -0.02,0.019 2.582,2.528 c 0.027,0.031 0.027,0.066 -0.004,0.097 l -0.187,0.192 c -0.028,0.027 -0.071,0.031 -0.094,0.003 l -3.047,-2.98"
         style="fill:#ffffff;fill-opacity:1;fill-rule:nonzero;stroke:none"
         id="path1506" /><path
         d="m 15.934,10.969 c -0.461,-0.61 -0.59,-0.879 -0.661,-1.102 -0.207,-0.664 0.036,-1.269 0.672,-1.75 0.633,-0.48 1.243,-0.496 1.711,-0.273 0.032,0.015 0.051,0.043 0.028,0.082 l -0.122,0.222 c -0.019,0.032 -0.054,0.047 -0.089,0.036 -0.438,-0.172 -0.86,-0.137 -1.325,0.214 -0.48,0.368 -0.648,0.821 -0.5,1.317 0.051,0.172 0.176,0.418 0.618,1 0.441,0.582 0.644,0.769 0.796,0.863 0.434,0.281 0.918,0.238 1.399,-0.125 0.469,-0.355 0.652,-0.812 0.508,-1.305 C 18.918,9.977 18.809,9.746 18.555,9.41 18.539,9.391 18.52,9.387 18.496,9.406 l -0.883,0.668 c -0.031,0.024 -0.07,0.02 -0.093,-0.012 L 17.391,9.895 C 17.367,9.863 17.371,9.824 17.406,9.801 l 1.188,-0.899 c 0.031,-0.027 0.07,-0.023 0.094,0.008 l 0.16,0.211 c 0.265,0.352 0.422,0.652 0.488,0.856 0.211,0.66 -0.035,1.277 -0.66,1.75 -0.633,0.48 -1.281,0.55 -1.867,0.175 -0.196,-0.129 -0.414,-0.328 -0.875,-0.933"
         style="fill:#ffffff;fill-opacity:1;fill-rule:nonzero;stroke:none"
         id="path1508" /><path
         d="m 22.094,4.387 c -0.016,-0.035 0,-0.071 0.039,-0.086 l 0.238,-0.113 c 0.047,-0.02 0.094,-0.028 0.141,0.007 l 3.715,2.278 0.019,-0.012 -1.5,-3.285 c -0.016,-0.035 0,-0.071 0.039,-0.09 l 0.242,-0.109 c 0.039,-0.016 0.075,-0.004 0.094,0.031 l 1.77,3.879 c 0.015,0.035 0,0.07 -0.039,0.086 L 26.594,7.09 C 26.555,7.109 26.512,7.113 26.457,7.082 l -3.695,-2.289 -0.028,0.012 1.5,3.293 c 0.016,0.035 0,0.07 -0.039,0.09 L 23.953,8.297 C 23.914,8.312 23.879,8.301 23.863,8.266 L 22.094,4.387"
         style="fill:#ffffff;fill-opacity:1;fill-rule:nonzero;stroke:none"
         id="path1510" /><path
         d="M 27.723,2.062 C 27.711,2.027 27.73,1.992 27.773,1.98 l 2.684,-0.785 c 0.039,-0.011 0.074,0.004 0.086,0.043 l 0.062,0.211 c 0.008,0.035 -0.011,0.071 -0.05,0.082 l -2.321,0.676 c -0.023,0.008 -0.035,0.027 -0.027,0.051 l 0.438,1.5 c 0.007,0.027 0.023,0.035 0.05,0.027 l 1.993,-0.586 c 0.042,-0.011 0.078,0.004 0.089,0.043 l 0.063,0.211 c 0.008,0.035 -0.012,0.07 -0.055,0.082 l -1.992,0.582 c -0.027,0.012 -0.039,0.028 -0.031,0.051 l 0.457,1.562 c 0.008,0.028 0.023,0.036 0.051,0.028 l 2.32,-0.68 c 0.039,-0.012 0.074,0.004 0.086,0.043 l 0.058,0.211 c 0.012,0.035 -0.007,0.07 -0.05,0.082 l -2.68,0.785 C 28.961,6.211 28.926,6.195 28.914,6.156 L 27.723,2.062"
         style="fill:#ffffff;fill-opacity:1;fill-rule:nonzero;stroke:none"
         id="path1512" /><path
         d="M 36.984,4.539 C 36.941,4.547 36.918,4.527 36.898,4.484 L 35.312,1.055 35.297,1.059 34.609,4.773 C 34.602,4.82 34.582,4.844 34.539,4.848 L 34.312,4.875 C 34.27,4.883 34.234,4.859 34.219,4.824 L 32.535,0.742 c -0.015,-0.043 0,-0.07 0.051,-0.078 l 0.258,-0.031 c 0.054,-0.008 0.086,0.008 0.097,0.051 l 1.411,3.472 0.011,-0.004 0.668,-3.73 c 0.008,-0.047 0.028,-0.07 0.074,-0.074 L 35.32,0.32 c 0.051,-0.008 0.075,0.008 0.094,0.051 L 37,3.82 h 0.016 l 0.48,-3.711 c 0.008,-0.05 0.027,-0.066 0.086,-0.074 l 0.254,-0.031 c 0.051,-0.008 0.074,0.016 0.066,0.062 l -0.613,4.372 c -0.004,0.039 -0.027,0.066 -0.07,0.074 l -0.235,0.027"
         style="fill:#ffffff;fill-opacity:1;fill-rule:nonzero;stroke:none"
         id="path1514" /><path
         d="m 42.633,2.238 c 0.078,-0.758 0.168,-1.043 0.269,-1.25 0.305,-0.625 0.895,-0.902 1.688,-0.816 0.793,0.082 1.25,0.484 1.437,0.969 0.012,0.031 0.008,0.062 -0.039,0.078 L 45.75,1.297 c -0.035,0.012 -0.07,0 -0.09,-0.035 C 45.461,0.84 45.125,0.578 44.547,0.516 43.949,0.453 43.512,0.668 43.281,1.129 c -0.078,0.164 -0.16,0.426 -0.234,1.152 -0.078,0.727 -0.055,1 -0.008,1.176 0.129,0.5 0.508,0.801 1.109,0.863 0.586,0.063 1.036,-0.144 1.262,-0.601 0.082,-0.16 0.16,-0.407 0.203,-0.824 0.004,-0.024 -0.011,-0.04 -0.039,-0.043 L 44.473,2.738 C 44.43,2.734 44.406,2.703 44.41,2.664 l 0.02,-0.211 c 0.004,-0.039 0.035,-0.062 0.078,-0.058 l 1.48,0.156 c 0.043,0.004 0.071,0.035 0.067,0.07 L 46.027,2.887 C 45.98,3.324 45.887,3.652 45.797,3.844 45.5,4.469 44.898,4.75 44.121,4.668 43.328,4.586 42.805,4.191 42.637,3.52 42.582,3.293 42.555,2.996 42.633,2.238"
         style="fill:#ffffff;fill-opacity:1;fill-rule:nonzero;stroke:none"
         id="path1516" /><path
         d="M 51.191,2.742 C 51.328,2.211 51.031,1.809 50.355,1.637 L 49.145,1.324 C 49.117,1.316 49.098,1.328 49.094,1.352 l -0.41,1.605 c -0.004,0.023 0.004,0.039 0.035,0.047 l 1.207,0.308 c 0.676,0.176 1.129,-0.031 1.265,-0.57 z m -0.679,3.11 C 50.469,5.84 50.453,5.824 50.445,5.773 L 49.918,3.672 49.848,3.652 48.633,3.344 c -0.031,-0.008 -0.047,0 -0.055,0.023 L 48.121,5.172 C 48.109,5.211 48.078,5.23 48.035,5.219 L 47.777,5.152 C 47.734,5.141 47.715,5.109 47.723,5.074 l 1.054,-4.136 c 0.008,-0.04 0.043,-0.055 0.082,-0.043 l 1.59,0.402 c 0.891,0.23 1.324,0.82 1.141,1.547 -0.149,0.59 -0.617,0.906 -1.254,0.883 l 0.547,2.148 c 0.019,0.043 -0.008,0.07 -0.051,0.059 l -0.32,-0.082"
         style="fill:#ffffff;fill-opacity:1;fill-rule:nonzero;stroke:none"
         id="path1518" /><path
         d="M 56.465,4.488 C 56.484,3.973 56.219,3.582 55.66,3.352 55.098,3.117 54.633,3.203 54.281,3.582 c -0.125,0.137 -0.289,0.375 -0.562,1.031 -0.27,0.657 -0.328,0.942 -0.332,1.129 -0.024,0.516 0.246,0.906 0.808,1.141 0.559,0.23 1.02,0.144 1.371,-0.235 0.125,-0.136 0.289,-0.378 0.563,-1.035 0.273,-0.656 0.328,-0.937 0.336,-1.125 z M 52.98,5.684 c 0.008,-0.246 0.067,-0.532 0.356,-1.231 0.289,-0.695 0.453,-0.937 0.621,-1.117 0.465,-0.508 1.102,-0.613 1.836,-0.309 0.73,0.305 1.105,0.832 1.074,1.516 -0.008,0.25 -0.066,0.535 -0.355,1.23 -0.289,0.7 -0.453,0.942 -0.617,1.122 C 55.426,7.398 54.789,7.508 54.059,7.203 53.324,6.898 52.953,6.371 52.98,5.684"
         style="fill:#ffffff;fill-opacity:1;fill-rule:nonzero;stroke:none"
         id="path1520" /><path
         d="m 58.461,7.562 c -0.426,0.711 -0.234,1.293 0.434,1.692 0.667,0.402 1.273,0.297 1.699,-0.41 L 62.043,6.43 c 0.019,-0.035 0.055,-0.043 0.094,-0.02 l 0.226,0.137 c 0.039,0.023 0.047,0.058 0.032,0.09 l -1.446,2.41 C 60.398,9.969 59.582,10.074 58.715,9.555 57.852,9.035 57.562,8.266 58.113,7.348 l 1.442,-2.41 c 0.023,-0.036 0.058,-0.043 0.097,-0.02 l 0.227,0.137 c 0.035,0.023 0.047,0.058 0.027,0.093 l -1.445,2.414"
         style="fill:#ffffff;fill-opacity:1;fill-rule:nonzero;stroke:none"
         id="path1522" /><path
         d="M 64.625,8.207 C 64.648,8.18 64.688,8.176 64.719,8.203 l 0.207,0.172 c 0.039,0.031 0.062,0.066 0.054,0.125 l -0.414,4.34 0.016,0.015 2.293,-2.793 c 0.027,-0.027 0.063,-0.031 0.098,-0.003 l 0.203,0.171 c 0.035,0.028 0.039,0.067 0.015,0.094 l -2.711,3.297 c -0.023,0.027 -0.062,0.031 -0.093,0.004 l -0.219,-0.18 c -0.031,-0.027 -0.059,-0.066 -0.051,-0.129 l 0.434,-4.332 -0.02,-0.015 -2.301,2.793 c -0.023,0.031 -0.062,0.035 -0.097,0.008 L 61.93,11.598 C 61.895,11.57 61.891,11.531 61.914,11.504 l 2.711,-3.297"
         style="fill:#ffffff;fill-opacity:1;fill-rule:nonzero;stroke:none"
         id="path1524" /><path
         d="m 66.527,15.246 0.735,0.809 c 0.422,0.468 0.847,0.644 1.312,0.461 0.211,-0.082 0.403,-0.207 0.953,-0.707 0.555,-0.5 0.7,-0.676 0.805,-0.879 0.23,-0.438 0.098,-0.883 -0.324,-1.352 l -0.731,-0.812 c -0.019,-0.02 -0.039,-0.024 -0.058,-0.004 l -2.688,2.426 c -0.023,0.015 -0.019,0.035 -0.004,0.058 z m 2.657,-3.004 c 0.027,-0.027 0.07,-0.023 0.097,0.008 l 1.024,1.137 c 0.543,0.601 0.683,1.191 0.383,1.754 -0.129,0.242 -0.286,0.441 -0.879,0.976 -0.598,0.539 -0.809,0.672 -1.063,0.774 -0.59,0.242 -1.164,0.043 -1.707,-0.559 l -1.023,-1.137 c -0.032,-0.031 -0.032,-0.07 0,-0.093 l 3.168,-2.86"
         style="fill:#ffffff;fill-opacity:1;fill-rule:nonzero;stroke:none"
         id="path1526" /><path
         d="M 58.949,52.719 C 57.855,52.23 56.715,51.82 54.855,50.688 49.629,47.504 48.039,42.762 50.977,34.492 c 1.703,-4.793 2.519,-8.828 2.097,-13.187 -0.058,-0.039 -0.117,-0.075 -0.176,-0.114 -0.277,5.469 -2.293,8.871 -5.906,14.633 -7.656,12.199 0.117,21.141 3.809,23.922 3.258,-1.641 6.054,-4.066 8.148,-7.027"
         style="fill:#ffffff;fill-opacity:1;fill-rule:nonzero;stroke:none"
         id="path1528" /><path
         d="m 43.445,35.379 c 5.903,-6.949 7.821,-10.156 8.219,-14.934 -0.062,-0.035 -0.125,-0.074 -0.187,-0.109 -1.368,5.719 -4.797,8.75 -13.836,14.773 -9.739,6.481 -9.301,17.629 -6.821,24.567 3.02,1.547 6.438,2.429 10.063,2.429 0.773,0 1.535,-0.043 2.289,-0.121 C 36.141,51.32 36.629,43.398 43.445,35.379"
         style="fill:#ffffff;fill-opacity:1;fill-rule:nonzero;stroke:none"
         id="path1530" /><path
         d="m 39.836,30.25 c 6.519,-2.828 9.613,-7.125 10.504,-10.492 -0.055,-0.028 -0.113,-0.055 -0.172,-0.078 -2.84,5.937 -8.504,6.925 -18.191,8.226 -5.747,0.77 -10.211,4.059 -12.907,8.133 -0.218,1.242 -0.336,2.52 -0.336,3.828 0,5.293 1.848,10.153 4.922,13.969 C 23.383,37.207 32.02,33.641 39.836,30.25"
         style="fill:#ffffff;fill-opacity:1;fill-rule:nonzero;stroke:none"
         id="path1532" /></g></g></svg>
